<?xml version="1.0" standalone="no"?><!DOCTYPE svg PUBLIC "-//W3C//DTD SVG 1.1//EN" "http://www.w3.org/Graphics/SVG/1.1/DTD/svg11.dtd"><svg t="1734954542373" class="icon" viewBox="0 0 2520 1024" version="1.1" xmlns="http://www.w3.org/2000/svg" p-id="8144" xmlns:xlink="http://www.w3.org/1999/xlink" width="492.1875" height="200"><path d="M257.595036 864.890234a13.600472 13.600472 0 0 1 3.492013-7.719187l42.009179-47.36535a19.77057 19.77057 0 0 0 4.673521-10.16097l1.680368-13.758006a11.815082 11.815082 0 0 0-12.156407-13.652983H181.820979l-2.336761 19.297966a11.920105 11.920105 0 0 0 12.025128 13.784262h71.783185l-34.92013 40.40758a22.579934 22.579934 0 0 0-5.697495 12.865311l-2.179226 19.166688H181.059563a16.016 16.016 0 0 0-15.543397 13.784262l-2.310505 19.429245h53.272891l-8.664393 70.916746a8.664393 8.664393 0 0 1-8.795672 7.614164h-12.156407a15.884721 15.884721 0 0 0-15.385861 13.758006l-2.336761 19.035409h42.429271a30.089075 30.089075 0 0 0 29.74775-25.730622l10.476039-85.199867H283.56196a16.147278 16.147278 0 0 0 15.517141-13.784262l2.993154-19.823081H255.914669l1.680367-12.865311z m-141.203354 111.718161c8.19179-10.16097 14.808236-21.477193 19.665547-33.607344a164.886029 164.886029 0 0 0 10.84362-42.954386l12.944078-108.777518H102.554909l1.942924-16.462347a11.94636 11.94636 0 0 0-12.025127-12.865311h-22.238609l-3.492013 29.327658h-12.944079l-3.885849 32.819671h12.944078l-9.320786 75.957847a153.72734 153.72734 0 0 0 0 42.980642c1.654111 11.788826 5.487449 23.15756 11.263711 33.607343-5.251147 2.809364-10.764852 5.146124-16.436091 6.931515a213.301608 213.301608 0 0 1-18.484039 4.883567h0.656393L26.255737 1023.711187a200.593831 200.593831 0 0 0 33.082229-7.981744 132.066357 132.066357 0 0 0 28.88131-13.758006c7.876721 5.828774 16.593626 10.449783 25.835646 13.758006 10.108459 3.675803 20.558242 6.327633 31.16556 7.981744l4.279685-35.261455a170.924848 170.924848 0 0 1-17.591344-4.883567 77.769493 77.769493 0 0 1-15.517141-6.95777z m-5.566216-77.218123a112.111997 112.111997 0 0 1-17.066229 50.332248 76.92931 76.92931 0 0 1-5.17238-22.133586 132.066357 132.066357 0 0 1 0.787672-28.198662l9.189508-75.931591h21.582216l-9.320787 75.931591z m255.914669-114.790082l-2.336761 19.429245h98.170201l-12.025128 26.623317h-69.315145a16.016 16.016 0 0 0-15.517141 13.784262L343.950155 1023.44863h22.763724a15.884721 15.884721 0 0 0 15.385862-13.758007l17.853901-145.955642h30.010308l-18.904131 149.815236h22.133586a15.753442 15.753442 0 0 0 15.385862-13.652984l16.672393-136.162252h29.74775l-18.221481 149.815236h22.10733a16.016 16.016 0 0 0 15.490885-13.652984l16.56737-136.162252h29.74775l-8.664393 71.94072-10.738596 88.035486h22.10733a15.884721 15.884721 0 0 0 15.412118-13.758006l21.844773-179.300429h-113.030948l11.76257-26.623317h97.645086a16.016 16.016 0 0 0 15.385862-13.652983l2.336761-19.429246h-232.783365a15.884721 15.884721 0 0 0-15.228327 13.652984z m1315.281147-11.342479a10.34476 10.34476 0 0 0-10.344761-8.244301h-27.673547c3.75457 16.856183 6.537679 33.922412 8.270557 51.11992a10.581062 10.581062 0 0 0 10.869876 9.767134h25.861901c-0.787672-10.16097-1.837902-20.32194-3.255712-30.377888a177.777595 177.777595 0 0 0-3.728314-22.264865z m-9.189508 76.719264a10.213482 10.213482 0 0 0-10.344761-8.139279h-27.673547c2.205482 10.187226 4.148406 20.348196 5.697495 30.535423 1.050229 6.931515 1.811646 13.758006 2.441784 20.715776 0.420092 5.644983 5.17238 9.97718 10.869875 9.898413h25.861901c0-10.292249-1.680367-20.479475-3.098177-30.614189a449.235661 449.235661 0 0 0-3.75457-22.396144z m-34.263737 80.946437a573.687854 573.687854 0 0 1-12.287685 42.087947c-5.828774 17.118741-12.944078 33.974924-19.665547 50.437271h24.050255a19.534268 19.534268 0 0 0 17.460065-11.815082c5.17238-12.865311 9.845901-25.730622 14.230609-38.622189 5.828774-17.250019 10.607318-34.36876 14.755725-51.461245H1650.43563a12.917823 12.917823 0 0 0-11.893849 9.373298z m255.78339-120.723879l2.33676-19.429245h-35.839081L1872.112818 761.416374h-24.837928a14.729468 14.729468 0 0 0-12.917822 9.268275l-7.771698 20.085639h-55.478373l-2.573062-19.95436a10.843619 10.843619 0 0 0-11.132432-9.399554h-24.942951l4.122151 29.353914h-21.450937a15.884721 15.884721 0 0 0-15.412118 13.652983l-2.441783 19.429246h182.083536a15.884721 15.884721 0 0 0 14.96577-13.652984z m-177.541294 181.715956l71.363093-119.043511h-26.623317a17.066229 17.066229 0 0 0-14.361888 8.37558l-15.517141 25.730622h-9.452065l42.429271-70.391631h-23.656419a21.477193 21.477193 0 0 0-17.853901 10.423528l-33.607344 56.502346a21.424681 21.424681 0 0 0-2.730596 7.614163l-3.360735 27.77857h29.222636l-24.837928 41.825389-4.909822 7.614164a19.376734 19.376734 0 0 0-2.966899 8.086767L1676.586344 1023.973744h67.214687a23.236327 23.236327 0 0 0 22.396143-19.95436l2.83562-23.15756a8.848183 8.848183 0 0 0-9.031974-10.292249h-17.591343l-2.599318 21.608472h-23.000026v-0.262558z m98.905361 0l71.415605-119.043511h-26.675829a17.066229 17.066229 0 0 0-14.335632 8.37558l-15.517141 25.730622h-9.452065l42.429271-70.391631h-23.682675a21.477193 21.477193 0 0 0-17.853901 10.423528l-33.607343 56.502346a21.424681 21.424681 0 0 0-2.704341 7.614163l-3.360735 27.77857h29.222636l-24.837927 41.825389-4.909823 7.614164a19.376734 19.376734 0 0 0-2.966899 8.086767L1775.517961 1023.973744h67.214687a23.236327 23.236327 0 0 0 22.396144-19.95436l2.835619-23.15756a8.848183 8.848183 0 0 0-9.058229-10.292249h-17.958924l-2.599318 21.608472h-23.000026l0.36758-0.262558z m-359.756108-230.000256h-38.779724a168.798133 168.798133 0 0 1-11.631291 23.315094H1349.544883a16.016 16.016 0 0 0-15.51714 13.784262l-2.336761 19.297967h49.780878a133.615446 133.615446 0 0 1-57.788878 39.121048l-4.647265 38.595934a167.642881 167.642881 0 0 0 39.829953-16.856183l-17.591344 144.669111h21.18838a15.884721 15.884721 0 0 0 15.412118-13.758007l4.384708-35.524012h129.309505v3.2032c-0.892695 7.614164-5.303659 14.178098-12.917823 14.178098h-4.279685a16.016 16.016 0 0 0-15.385862 13.626728l-2.205482 18.273993h32.58337c4.43722-0.052511 8.821928-0.866439 12.944078-2.441784 3.964616-1.549088 7.614164-3.807082 10.738597-6.695213 3.176944-3.045665 5.802518-6.616446 7.745442-10.554806 2.179226-3.990872 3.544524-8.349324 4.017128-12.865311l18.221481-149.158842h-155.959078c7.246583-7.614164 13.915541-15.700931 20.059383-24.20779h144.327787a15.884721 15.884721 0 0 0 15.385862-13.652983l2.310505-19.429246H1446.953668c3.465757-7.430374 6.485167-15.097049 9.031973-22.895002z m60.125637 180.193123h-129.309504l2.100459-16.724904h129.283249l-2.047948 16.724904z m6.091331-49.807133H1392.86685l2.074203-16.856183h129.309505l-2.074204 16.856183z m550.241481-130.359734h-38.805979a181.269608 181.269608 0 0 1-11.76257 23.288838h-55.74093a15.884721 15.884721 0 0 0-15.385862 13.784262l-2.441783 19.297967H1998.061588a132.827774 132.827774 0 0 1-58.07769 39.514884l-4.647266 38.595934a167.642881 167.642881 0 0 0 39.829953-16.856183l-17.853901 144.012717h21.871029a15.884721 15.884721 0 0 0 15.385862-13.758006l4.384708-35.524012h129.335761v3.2032c-1.050229 7.614164-5.303659 14.178098-12.944079 14.178098h-4.12215a15.884721 15.884721 0 0 0-15.412118 13.652983l-2.310505 18.247737h32.557114c4.463475-0.052511 8.821928-0.866439 12.944079-2.441783a33.397298 33.397298 0 0 0 18.641573-17.25002c2.047947-4.017128 3.413246-8.401836 3.990872-12.865311l18.116458-149.158842h-156.221635a214.771929 214.771929 0 0 0 19.534268-23.682675h144.301531a15.753442 15.753442 0 0 0 15.648419-13.91554l2.46804-19.429246h-142.253584c3.518269-7.430374 6.59019-15.097049 9.189508-22.895002z m59.99436 180.166867h-129.309505l2.074203-16.724904h129.309505l-2.074203 16.724904z m6.091331-49.807133h-129.440784l2.047947-16.856183h129.335761l-1.942924 16.856183z m-965.73852 85.068588a16.016 16.016 0 0 0 15.385862-13.758006l7.115305-58.550294h-211.93631a16.147278 16.147278 0 0 0-15.648419 13.915541l-7.115305 58.419015h22.107331a15.884721 15.884721 0 0 0 15.385862-13.784262l3.492013-28.067383h154.016153l-5.17238 41.851645h22.369888z m-65.691854-127.156534h81.208995a15.884721 15.884721 0 0 0 15.385862-13.652984l7.377862-60.992077h-94.258096a11.920105 11.920105 0 0 0-12.944079-13.652983h-21.976052l-1.680367 14.309377h-81.340273a16.016 16.016 0 0 0-15.385862 13.758006l-7.509141 60.887054h95.570883l-1.575344 12.865311h-94.258096a16.147278 16.147278 0 0 0-15.648419 13.915541l-2.074204 16.593626h238.323325a15.884721 15.884721 0 0 0 15.543397-13.652984l2.047947-16.856183h-108.226148l1.41781-13.521704z m5.566216-45.422425h58.970386l-1.942925 16.094766h-58.970385l1.942924-16.094766z m-37.624471 16.094766h-59.4955l1.942924-16.094766h59.495501l-1.942925 16.094766z" fill="#009BE2" p-id="8145"></path><path d="M1158.534397 991.259096a93.102844 93.102844 0 0 1-55.714674-18.011436 26.518294 26.518294 0 0 1-6.616446-21.135868v-8.874439h-34.00118s0 4.752288-1.444065 8.874439a34.55255 34.55255 0 0 1-11.815082 21.135868 114.685059 114.685059 0 0 1-60.230661 18.011436c-12.99659 0.918951-25.99318 1.155252-39.751185 1.050229L945.206533 1023.317351c13.495449 0 26.492039-0.36758 38.963514-1.155253 11.815082-0.787672 23.551396-2.284249 35.182688-4.489731 10.239737-1.890413 20.295685-4.726033 29.984051-8.506858 8.533115-3.413246 16.541114-7.981744 23.761442-13.652984 5.855029 5.750006 12.707777 10.371016 20.243174 13.652984 8.979462 3.833338 18.35276 6.668957 27.936104 8.506858 11.263711 2.231738 22.658701 3.75457 34.132458 4.489731 12.208918 0.918951 25.205508 1.312787 38.963514 1.155253l3.75457-31.008026c-13.626728 0.105023-26.859619-0.131279-39.593651-1.050229z m1104.946437-187.098382l-25.99318 207.709135h69.210123c13.127869 0.105023 24.260301-9.504577 25.99318-22.396143l25.940668-207.709136h-69.183867a25.888157 25.888157 0 0 0-25.99318 22.396144z m34.395015 10.686085h20.374452l-20.111894 164.177123h-20.400708l20.13815-164.177123z m158.007026 47.260326l4.8048-39.646162h41.956667a15.937232 15.937232 0 0 0 15.569653-13.652984l2.33676-19.429245h-55.819697l1.811646-14.309377a11.920105 11.920105 0 0 0-2.914387-9.6096 12.130151 12.130151 0 0 0-9.294531-4.043383h-21.949796l-3.492013 27.936104H2386.909054c-7.876721 0.210046-14.440655 6.03882-15.438374 13.784262l-2.468039 19.324223h55.819697l-4.8048 39.646162h-47.391605a16.042255 16.042255 0 0 0-15.438374 13.652984l-2.363016 19.429245h61.175867L2400.325735 1023.973744h19.350478a19.166688 19.166688 0 0 0 18.431528-16.357324l13.626727-112.138253h47.129048a15.910977 15.910977 0 0 0 15.464629-13.652983l2.336761-19.429245-60.782031-0.262558z" fill="#009BE2" p-id="8146"></path><path d="M2341.407861 971.09469L2335.500321 1023.973744s46.603933-25.12674 63.013768-117.625702h-31.506884a154.987616 154.987616 0 0 1-25.599344 64.746648z m110.379119-64.772903C2447.297249 998.847004 2488.256199 1023.973744 2488.256199 1023.973744L2494.295018 971.09469a132.775262 132.775262 0 0 1-11.027409-64.772903h-31.506885z m-1564.841927-13.521705a127.471603 127.471603 0 0 1-7.82421-24.995462A165.98877 165.98877 0 0 1 875.786364 840.183585H840.183585c0.210046 15.884721 2.179226 31.690675 5.881285 47.076537a141.78098 141.78098 0 0 0 14.729469 37.440681c5.671239 10.082203 13.154124 18.799108 22.054819 25.67811 8.139278 6.380144 17.643855 10.502295 27.647291 11.998872l4.463475-39.751186a33.738622 33.738622 0 0 1-16.38358-10.371016 82.022922 82.022922 0 0 1-11.657547-19.455501z" fill="#009BE2" p-id="8147"></path><path d="M799.487193 808.913002h102.213584a15.569652 15.569652 0 0 0 14.860747-13.836773L918.950796 775.594472h-229.370119a15.700931 15.700931 0 0 0-14.887002 13.836773l-1.759135 19.508013h88.796903c-4.489731 11.500013-35.261455 82.574293-102.791211 116.312915l-4.752288 40.197533a242.708033 242.708033 0 0 0 116.575472-97.067459L752.489423 1023.973744h21.37217a15.569652 15.569652 0 0 0 14.887003-13.836773l18.904131-160.895157h-25.914413c6.879003-12.970334 12.839055-26.439527 17.775134-40.328812z m-181.952258-482.974282a22.711213 22.711213 0 0 0-32.137022-6.984027l-50.043435 33.607344a24.417835 24.417835 0 0 0-6.616446 32.688392l32.137022 51.697547a22.579934 22.579934 0 0 0 19.140433 10.738596c4.463475 0.026256 8.821928-1.312787 12.497731-3.885849l25.021717-16.672393c24.20779-16.541114 31.086793-50.122202 15.385862-75.353965l-15.385862-25.835645z" fill="#009BE2" p-id="8148"></path><path d="M595.112536 149.657701a321.790313 321.790313 0 0 0-330.822287-144.143996c-129.178226 24.234045-230.84044 124.872285-257.043666 254.418092a329.719546 329.719546 0 0 0 45.028589 246.856439c95.308325 150.314095 293.381606 194.738802 443.065563 99.404221l4.778544-2.730597 3.229456-2.363016c5.671239-3.885849 11.473757-8.165534 17.171252-12.970334a6.327633 6.327633 0 0 0 1.78539-1.444066 20.742032 20.742032 0 0 0 6.852747-24.155278v-2.205482l-15.490885-22.60619-2.966898-4.148406a46.603933 46.603933 0 0 0-59.86308-10.791108l-1.05023 0.656393h-0.787672l-1.155252 0.892696a227.82103 227.82103 0 0 1-172.920285 31.638163 229.107561 229.107561 0 0 1-144.30153-101.005821c-68.842542-108.016102-38.648445-251.634984 67.739801-322.315428a227.374683 227.374683 0 0 1 276.472911 19.744315 15.097049 15.097049 0 0 1 4.752289 9.478321 13.022846 13.022846 0 0 1-5.933797 11.289967l-198.493372 130.56978a47.73293 47.73293 0 0 0-13.679239 65.639343l14.178098 22.186097a20.531986 20.531986 0 0 0 28.539986 6.117587l292.462655-192.53332c7.587908-5.776262 11.683803-15.044537 10.843619-24.549114a61.937284 61.937284 0 0 0-12.392707-30.929258zM1352.433015 19.613036h-23.105049a14.78198 14.78198 0 0 0-14.96577 14.939514v47.54914a15.018282 15.018282 0 0 0 14.96577 14.939514h47.36535A14.78198 14.78198 0 0 0 1391.554063 82.10169v-23.787698c0-21.529704-17.328786-38.963514-38.727212-38.963514M904.588908 62.357375H843.071716v-27.831081a15.018282 15.018282 0 0 0-14.860747-15.044537h-52.380195a15.018282 15.018282 0 0 0-14.335633 15.070793v88.744391a16.462347 16.462347 0 0 0 14.96577 16.619882h79.239815c8.139278 0.131279 14.703213 6.642701 14.96577 14.808235v83.545756a14.860747 14.860747 0 0 0 14.860747 14.939514h42.849363a14.676957 14.676957 0 0 0 14.834491-14.96577v-137.054947c0-21.529704-17.328786-38.963514-38.700956-38.963514" fill="#009BE2" p-id="8149"></path><path d="M882.691623 553.917284h-32.320812a12.051383 12.051383 0 0 1-12.077639-11.998872V193.399759a14.729468 14.729468 0 0 0-14.834491-14.676957h-47.260327a14.755724 14.755724 0 0 0-10.502295 4.253429 14.440655 14.440655 0 0 0-4.279685 10.423528v367.396528c0 38.254609 31.270583 69.262634 69.892772 69.341402h51.513756a14.860747 14.860747 0 0 0 14.913259-14.78198v-47.312838a14.860747 14.860747 0 0 0-14.913259-14.650702m1087.775185-222.071023h3.229456c3.150688-0.472603 6.248865-1.41781 9.136996-2.809364l1.41781-0.630138a39.646163 39.646163 0 0 0 10.948643-8.296813l224.61783-261.454629a14.073075 14.073075 0 0 0 3.75457-9.688367 14.59819 14.59819 0 0 0-14.545678-14.388144h-63.486372c-3.150688 0.498859-6.22261 1.444066-9.136997 2.783108l-1.41781 0.656393a35.917848 35.917848 0 0 0-8.874439 6.248866s-223.094998 258.015128-226.58701 262.583626a14.178098 14.178098 0 0 0-2.888131 15.622163 14.440655 14.440655 0 0 0 13.469193 8.611882h60.230661m-35.130177-252.422656v-13.652983a38.228353 38.228353 0 0 0-23.183815-34.92013l-2.966899-0.997718H1440.599779a15.517141 15.517141 0 0 0-10.922386 4.463475 15.228327 15.228327 0 0 0-4.515987 10.817364v28.566242c-0.131279 10.659829 5.776262 20.505731 15.333351 25.49432 4.463475 1.995436 9.242019 3.150688 14.151842 3.439502h349.253814c2.546806 0 4.62101 2.047947 4.62101 4.594754a4.200918 4.200918 0 0 1-1.155253 2.940642l-127.077767 154.383734c-6.563934 7.325351-10.187226 16.803672-10.134715 26.623318v248.983154c0 7.036538-5.776262 12.734032-12.865311 12.734032h-107.648522a29.852773 29.852773 0 0 0-29.721494 29.19638v34.55255c0.052511 3.938361 1.759134 7.666675 4.726033 10.318504 2.940643 2.625574 6.879003 3.938361 10.843619 3.570781h141.59719c40.617625 0 73.568575-32.557114 73.647342-72.780903v-236.87926c0-8.638137 3.2032-16.987462 9.005718-23.446373l171.449963-198.099536c3.492013-6.03882 4.909823-12.99659 4.148406-19.901849M2520.550755 558.091946V462.888644a29.852773 29.852773 0 0 0-29.879029-29.590216h-34.500038a15.385862 15.385862 0 0 0-15.307095 15.175816v90.398503c0 7.036538-5.776262 12.734032-12.865311 12.734032H2046.03082a4.62101 4.62101 0 0 1-4.489731-4.594754c0-1.023974 0.36758-1.995436 1.023973-2.783108L2447.559806 70.89049a14.440655 14.440655 0 0 0 2.494295-15.569652 14.703213 14.703213 0 0 0-13.311658-8.664393h-70.15533c-3.150688 0.525115-6.248865 1.444066-9.136996 2.809364l-1.41781 0.630137a42.875619 42.875619 0 0 0-8.874439 6.248866l-1.942925 2.047947-424.817825 493.082742a31.244327 31.244327 0 0 0-9.399554 19.77057v19.744314c0 21.135868 17.302531 38.254609 38.622189 38.254609h497.808774a72.728392 72.728392 0 0 0 51.382478-20.453219c13.705495-13.285403 21.529704-31.428117 21.73975-50.411016v-0.262557z m-1135.823184 23.866465a28.303685 28.303685 0 0 0-28.303684-28.041127h-73.253507a13.968052 13.968052 0 0 1-13.91554-13.91554v-113.45104h103.001256c7.089049 0 12.865311-5.697495 12.865311-12.734033v-51.014897a12.8128 12.8128 0 0 0-12.865311-12.734032h-102.975001V254.838184h100.664496c8.165534 0 14.808236-6.563934 14.808236-14.650702V193.399759a14.860747 14.860747 0 0 0-14.96577-14.676957h-100.506962V40.95895a14.59819 14.59819 0 0 0-4.384708-10.423528 14.887003 14.887003 0 0 0-10.554806-4.253429h-46.866491a14.729468 14.729468 0 0 0-14.808235 14.676957v137.790108H1100.115382V102.23984h30.11533c4.017128 0.131279 7.902977-1.312787 10.817364-4.043383a14.703213 14.703213 0 0 0 4.647265-10.502295V40.95895a14.703213 14.703213 0 0 0-4.62101-10.554807 15.018282 15.018282 0 0 0-10.843619-4.12215h-153.070947a14.703213 14.703213 0 0 0-14.283121 14.676957V87.694162c0 8.086767 6.642701 14.650701 14.808236 14.650701h45.94754v76.482962h-46.472655a14.703213 14.703213 0 0 0-14.283121 14.545678v46.787724a14.440655 14.440655 0 0 0 4.305941 10.397272c2.783108 2.756852 6.563934 4.279685 10.502295 4.253429h45.94754v95.492115H974.875516c-7.089049 0-12.865311 5.697495-12.865311 12.734033v50.988641c0 7.036538 5.776262 12.760288 12.865311 12.760288h48.2843v114.737571a12.051383 12.051383 0 0 1-12.103894 11.972616h-33.869901a14.703213 14.703213 0 0 0-14.283121 14.519423v46.787723c0 3.885849 1.575344 7.614164 4.332197 10.371016 2.783108 2.756852 6.563934 4.305941 10.502294 4.305941h52.879055c38.622189 0 69.971539-30.98177 70.050306-69.236378v-133.720469h31.769442c7.115305 0 12.865311-5.697495 12.865311-12.734032v-51.014897a12.8128 12.8128 0 0 0-12.865311-12.734033H1100.115382V254.838184h92.157637v302.256044c-0.761416 18.904131 6.248865 37.335658 19.429245 51.067409a71.153047 71.153047 0 0 0 50.489782 21.844773h107.884824a14.860747 14.860747 0 0 0 14.78198-14.650701l-0.105023-33.397298z" fill="#009BE2" p-id="8150"></path></svg>